<svg xmlns="http://www.w3.org/2000/svg" xmlns:xlink="http://www.w3.org/1999/xlink" width="500" zoomAndPan="magnify" viewBox="0 0 375 374.999991" height="500" preserveAspectRatio="xMidYMid meet" version="1.0"><defs><g/><clipPath id="5a07f55f45"><path d="M 110 97 L 335 97 L 335 248.214844 L 110 248.214844 Z M 110 97 " clip-rule="nonzero"/></clipPath><clipPath id="f86d3ef7ff"><path d="M 40 81.714844 L 265 81.714844 L 265 233 L 40 233 Z M 40 81.714844 " clip-rule="nonzero"/></clipPath></defs><g fill="#2a3854" fill-opacity="1"><g transform="translate(69.962827, 284.333317)"><g><path d="M 10.609375 -27.703125 C 10.378906 -27.703125 10.085938 -27.957031 9.734375 -28.46875 C 9.273438 -29.175781 9.046875 -29.769531 9.046875 -30.25 C 9.046875 -30.726562 9.117188 -31.046875 9.265625 -31.203125 C 13.398438 -33.484375 15.503906 -34.625 15.578125 -34.625 C 15.828125 -34.625 16.144531 -34.316406 16.53125 -33.703125 C 17.113281 -32.816406 17.40625 -31.984375 17.40625 -31.203125 C 17.40625 -30.921875 17.34375 -30.71875 17.21875 -30.59375 C 12.851562 -28.664062 10.648438 -27.703125 10.609375 -27.703125 Z M 13.203125 0.375 C 9.640625 0.375 6.738281 -0.785156 4.5 -3.109375 C 2.257812 -5.441406 1.140625 -8.84375 1.140625 -13.3125 C 1.140625 -17.789062 2.269531 -21.179688 4.53125 -23.484375 C 6.800781 -25.785156 9.726562 -26.9375 13.3125 -26.9375 C 16.90625 -26.9375 19.800781 -25.800781 22 -23.53125 C 24.207031 -21.269531 25.3125 -17.835938 25.3125 -13.234375 C 25.3125 -8.640625 24.179688 -5.222656 21.921875 -2.984375 C 19.671875 -0.742188 16.765625 0.375 13.203125 0.375 Z M 13.21875 -19.640625 C 12.007812 -19.640625 10.992188 -19.082031 10.171875 -17.96875 C 9.347656 -16.851562 8.9375 -15.289062 8.9375 -13.28125 C 8.9375 -11.269531 9.328125 -9.722656 10.109375 -8.640625 C 10.890625 -7.566406 11.921875 -7.03125 13.203125 -7.03125 C 14.484375 -7.03125 15.519531 -7.570312 16.3125 -8.65625 C 17.113281 -9.75 17.515625 -11.304688 17.515625 -13.328125 C 17.515625 -15.359375 17.101562 -16.914062 16.28125 -18 C 15.457031 -19.09375 14.4375 -19.640625 13.21875 -19.640625 Z M 13.21875 -19.640625 "/></g></g></g><g fill="#2a3854" fill-opacity="1"><g transform="translate(96.405429, 284.333317)"><g><path d="M 9.875 6.921875 C 9.875 7.097656 8.789062 7.1875 6.625 7.1875 C 4.457031 7.1875 3.375 7.097656 3.375 6.921875 L 3.375 -12.65625 L 2.09375 -12.65625 C 1.476562 -12.65625 1.0625 -13.210938 0.84375 -14.328125 C 0.757812 -14.679688 0.71875 -15.132812 0.71875 -15.6875 C 0.71875 -16.25 0.894531 -16.910156 1.25 -17.671875 C 1.757812 -18.785156 2.570312 -19.34375 3.6875 -19.34375 C 4.414062 -19.34375 5.09375 -19.171875 5.71875 -18.828125 C 6.34375 -18.484375 6.773438 -18.164062 7.015625 -17.875 C 7.253906 -17.582031 7.375 -17.410156 7.375 -17.359375 C 9.070312 -18.679688 10.90625 -19.34375 12.875 -19.34375 C 14.851562 -19.34375 16.550781 -18.578125 17.96875 -17.046875 C 19.394531 -15.515625 20.109375 -13.144531 20.109375 -9.9375 C 20.109375 -6.726562 19.394531 -4.242188 17.96875 -2.484375 C 16.550781 -0.722656 14.753906 0.15625 12.578125 0.15625 C 11.585938 0.15625 10.6875 0.101562 9.875 0 Z M 11.4375 -12.6875 C 11.007812 -12.6875 10.59375 -12.550781 10.1875 -12.28125 L 10.1875 -5.546875 C 10.613281 -5.492188 10.957031 -5.46875 11.21875 -5.46875 C 11.488281 -5.46875 11.703125 -5.46875 11.859375 -5.46875 C 12.890625 -5.570312 13.40625 -6.90625 13.40625 -9.46875 C 13.40625 -11.613281 12.75 -12.6875 11.4375 -12.6875 Z M 11.4375 -12.6875 "/></g></g></g><g fill="#2a3854" fill-opacity="1"><g transform="translate(117.491121, 284.333317)"><g><path d="M 10.453125 -0.234375 C 10.453125 0.078125 9.390625 0.234375 7.265625 0.234375 C 4.722656 0.128906 3.453125 -0.0351562 3.453125 -0.265625 L 3.453125 -13.71875 L 1.515625 -13.71875 C 1.015625 -13.71875 0.765625 -14.59375 0.765625 -16.34375 C 0.765625 -16.800781 0.804688 -17.359375 0.890625 -18.015625 C 0.984375 -18.671875 1.164062 -19 1.4375 -19 L 3.453125 -19 L 3.453125 -22.34375 C 3.453125 -22.851562 4.519531 -23.109375 6.65625 -23.109375 C 8.800781 -23.109375 9.875 -22.90625 9.875 -22.5 L 9.875 -20.0625 L 9.921875 -19 L 13.140625 -19 C 13.578125 -19 13.796875 -18.113281 13.796875 -16.34375 C 13.796875 -14.570312 13.578125 -13.6875 13.140625 -13.6875 L 10.453125 -13.6875 Z M 10.453125 -0.234375 "/></g></g></g><g fill="#2a3854" fill-opacity="1"><g transform="translate(131.472264, 284.333317)"><g><path d="M 8.65625 -0.234375 C 8.65625 -0.0234375 7.492188 0.078125 5.171875 0.078125 C 2.859375 0.078125 1.703125 -0.0078125 1.703125 -0.1875 L 1.703125 -18.84375 C 1.703125 -19.019531 2.859375 -19.109375 5.171875 -19.109375 C 7.492188 -19.109375 8.65625 -19.035156 8.65625 -18.890625 Z M 8.65625 -21.125 C 8.65625 -20.945312 7.492188 -20.859375 5.171875 -20.859375 C 2.859375 -20.859375 1.703125 -20.9375 1.703125 -21.09375 L 1.703125 -26.5625 C 1.703125 -26.8125 2.859375 -26.9375 5.171875 -26.9375 C 7.492188 -26.9375 8.65625 -26.863281 8.65625 -26.71875 Z M 8.65625 -21.125 "/></g></g></g><g fill="#2a3854" fill-opacity="1"><g transform="translate(141.844147, 284.333317)"><g><path d="M 7.9375 -9.421875 C 7.9375 -6.941406 8.875 -5.703125 10.75 -5.703125 C 11.96875 -5.703125 12.984375 -5.941406 13.796875 -6.421875 C 14.171875 -6.421875 14.476562 -5.769531 14.71875 -4.46875 C 14.96875 -3.164062 15.09375 -2.28125 15.09375 -1.8125 C 15.09375 -1.34375 15.023438 -1.03125 14.890625 -0.875 C 13.546875 -0.0390625 11.707031 0.375 9.375 0.375 C 7.050781 0.375 5.070312 -0.488281 3.4375 -2.21875 C 1.800781 -3.957031 0.984375 -6.328125 0.984375 -9.328125 C 0.984375 -12.328125 1.785156 -14.75 3.390625 -16.59375 C 5.003906 -18.445312 7.144531 -19.375 9.8125 -19.375 C 12.488281 -19.375 14.347656 -18.726562 15.390625 -17.4375 C 15.617188 -17.164062 15.734375 -16.753906 15.734375 -16.203125 C 15.734375 -15.660156 15.628906 -15 15.421875 -14.21875 C 14.972656 -12.59375 14.378906 -11.65625 13.640625 -11.40625 C 13.535156 -11.375 13.390625 -11.359375 13.203125 -11.359375 C 13.015625 -11.359375 12.78125 -11.507812 12.5 -11.8125 C 11.507812 -12.800781 10.71875 -13.296875 10.125 -13.296875 C 9.53125 -13.296875 9.015625 -12.988281 8.578125 -12.375 C 8.148438 -11.769531 7.9375 -10.785156 7.9375 -9.421875 Z M 7.9375 -9.421875 "/></g></g></g><g fill="#2a3854" fill-opacity="1"><g transform="translate(157.952861, 284.333317)"><g><path d="M 4.109375 -13.796875 C 3.398438 -15.054688 3.046875 -16.085938 3.046875 -16.890625 C 3.046875 -17.691406 3.257812 -18.207031 3.6875 -18.4375 C 5.132812 -19.0625 7.113281 -19.375 9.625 -19.375 C 12.144531 -19.375 13.925781 -18.785156 14.96875 -17.609375 C 16.007812 -16.429688 16.53125 -14.691406 16.53125 -12.390625 L 16.53125 -6.390625 L 17.828125 -6.390625 C 18.253906 -6.390625 18.585938 -6.132812 18.828125 -5.625 C 19.066406 -5.113281 19.1875 -4.414062 19.1875 -3.53125 C 19.1875 -2.644531 18.960938 -1.769531 18.515625 -0.90625 C 18.078125 -0.0507812 17.476562 0.375 16.71875 0.375 C 15.351562 0.375 14.25 0.0078125 13.40625 -0.71875 C 13.03125 -1.019531 12.742188 -1.390625 12.546875 -1.828125 C 11.378906 -0.359375 9.566406 0.375 7.109375 0.375 C 5.253906 0.375 3.691406 -0.28125 2.421875 -1.59375 C 1.160156 -2.914062 0.53125 -4.472656 0.53125 -6.265625 C 0.53125 -10.398438 3 -12.46875 7.9375 -12.46875 L 10.03125 -12.46875 L 10.03125 -12.84375 C 10.03125 -13.5 9.921875 -13.921875 9.703125 -14.109375 C 9.492188 -14.304688 8.992188 -14.40625 8.203125 -14.40625 C 7.242188 -14.40625 5.878906 -14.203125 4.109375 -13.796875 Z M 7.140625 -6.796875 C 7.140625 -6.242188 7.289062 -5.820312 7.59375 -5.53125 C 7.90625 -5.238281 8.296875 -5.09375 8.765625 -5.09375 C 9.234375 -5.09375 9.65625 -5.28125 10.03125 -5.65625 L 10.03125 -8.59375 L 8.96875 -8.59375 C 7.75 -8.59375 7.140625 -7.992188 7.140625 -6.796875 Z M 7.140625 -6.796875 "/></g></g></g><g fill="#2a3854" fill-opacity="1"><g transform="translate(177.594847, 284.333317)"><g/></g></g><g fill="#080e18" fill-opacity="1"><g transform="translate(184.736257, 284.333317)"><g><path d="M 1.140625 -13.265625 C 1.140625 -17.773438 2.269531 -21.179688 4.53125 -23.484375 C 6.800781 -25.785156 9.726562 -26.9375 13.3125 -26.9375 C 16.90625 -26.9375 19.800781 -25.800781 22 -23.53125 C 24.207031 -21.269531 25.3125 -17.847656 25.3125 -13.265625 C 25.3125 -9.742188 24.625 -6.90625 23.25 -4.75 C 21.882812 -2.59375 20.007812 -1.109375 17.625 -0.296875 L 21.65625 2.46875 C 21.8125 2.570312 21.890625 2.753906 21.890625 3.015625 C 21.890625 3.285156 21.601562 3.785156 21.03125 4.515625 C 20.457031 5.253906 19.769531 5.816406 18.96875 6.203125 C 18.175781 6.597656 17.578125 6.796875 17.171875 6.796875 C 16.765625 6.796875 16.4375 6.660156 16.1875 6.390625 L 10.640625 0.234375 C 7.804688 -0.296875 5.515625 -1.722656 3.765625 -4.046875 C 2.015625 -6.367188 1.140625 -9.441406 1.140625 -13.265625 Z M 13.21875 -19.640625 C 12.007812 -19.640625 10.992188 -19.082031 10.171875 -17.96875 C 9.347656 -16.851562 8.9375 -15.289062 8.9375 -13.28125 C 8.9375 -11.269531 9.328125 -9.722656 10.109375 -8.640625 C 10.890625 -7.566406 11.921875 -7.03125 13.203125 -7.03125 C 14.484375 -7.03125 15.519531 -7.570312 16.3125 -8.65625 C 17.113281 -9.75 17.515625 -11.304688 17.515625 -13.328125 C 17.515625 -15.359375 17.101562 -16.914062 16.28125 -18 C 15.457031 -19.09375 14.4375 -19.640625 13.21875 -19.640625 Z M 13.21875 -19.640625 "/></g></g></g><g fill="#080e18" fill-opacity="1"><g transform="translate(211.558781, 284.333317)"><g><path d="M 1.515625 -18.765625 C 1.515625 -19.046875 2.601562 -19.1875 4.78125 -19.1875 C 6.96875 -19.1875 8.0625 -19.046875 8.0625 -18.765625 L 8.0625 -7.671875 C 8.0625 -6.410156 8.460938 -5.78125 9.265625 -5.78125 C 9.878906 -5.78125 10.566406 -6.046875 11.328125 -6.578125 L 11.328125 -18.765625 C 11.328125 -19.023438 12.398438 -19.15625 14.546875 -19.15625 C 16.703125 -19.15625 17.78125 -19.023438 17.78125 -18.765625 L 17.78125 -6.3125 L 18.765625 -6.3125 C 19.628906 -6.3125 20.0625 -5.488281 20.0625 -3.84375 C 20.0625 -3 19.882812 -2.148438 19.53125 -1.296875 C 19.019531 -0.179688 18.335938 0.375 17.484375 0.375 C 15.785156 0.375 14.53125 -0.316406 13.71875 -1.703125 L 13.6875 -1.671875 C 12.132812 -0.304688 10.472656 0.375 8.703125 0.375 C 6.242188 0.375 4.429688 -0.238281 3.265625 -1.46875 C 2.097656 -2.695312 1.515625 -4.726562 1.515625 -7.5625 Z M 1.515625 -18.765625 "/></g></g></g><g fill="#080e18" fill-opacity="1"><g transform="translate(232.226557, 284.333317)"><g><path d="M 4.109375 -13.796875 C 3.398438 -15.054688 3.046875 -16.085938 3.046875 -16.890625 C 3.046875 -17.691406 3.257812 -18.207031 3.6875 -18.4375 C 5.132812 -19.0625 7.113281 -19.375 9.625 -19.375 C 12.144531 -19.375 13.925781 -18.785156 14.96875 -17.609375 C 16.007812 -16.429688 16.53125 -14.691406 16.53125 -12.390625 L 16.53125 -6.390625 L 17.828125 -6.390625 C 18.253906 -6.390625 18.585938 -6.132812 18.828125 -5.625 C 19.066406 -5.113281 19.1875 -4.414062 19.1875 -3.53125 C 19.1875 -2.644531 18.960938 -1.769531 18.515625 -0.90625 C 18.078125 -0.0507812 17.476562 0.375 16.71875 0.375 C 15.351562 0.375 14.25 0.0078125 13.40625 -0.71875 C 13.03125 -1.019531 12.742188 -1.390625 12.546875 -1.828125 C 11.378906 -0.359375 9.566406 0.375 7.109375 0.375 C 5.253906 0.375 3.691406 -0.28125 2.421875 -1.59375 C 1.160156 -2.914062 0.53125 -4.472656 0.53125 -6.265625 C 0.53125 -10.398438 3 -12.46875 7.9375 -12.46875 L 10.03125 -12.46875 L 10.03125 -12.84375 C 10.03125 -13.5 9.921875 -13.921875 9.703125 -14.109375 C 9.492188 -14.304688 8.992188 -14.40625 8.203125 -14.40625 C 7.242188 -14.40625 5.878906 -14.203125 4.109375 -13.796875 Z M 7.140625 -6.796875 C 7.140625 -6.242188 7.289062 -5.820312 7.59375 -5.53125 C 7.90625 -5.238281 8.296875 -5.09375 8.765625 -5.09375 C 9.234375 -5.09375 9.65625 -5.28125 10.03125 -5.65625 L 10.03125 -8.59375 L 8.96875 -8.59375 C 7.75 -8.59375 7.140625 -7.992188 7.140625 -6.796875 Z M 7.140625 -6.796875 "/></g></g></g><g fill="#080e18" fill-opacity="1"><g transform="translate(251.868543, 284.333317)"><g><path d="M 8.625 -0.296875 C 8.625 -0.078125 7.332031 0.03125 4.75 0.03125 C 2.71875 0.0078125 1.703125 -0.0859375 1.703125 -0.265625 L 1.703125 -26.140625 C 1.703125 -26.523438 2.929688 -26.71875 5.390625 -26.71875 C 7.546875 -26.632812 8.625 -26.503906 8.625 -26.328125 Z M 8.625 -0.296875 "/></g></g></g><g fill="#080e18" fill-opacity="1"><g transform="translate(262.202431, 284.333317)"><g><path d="M 8.65625 -0.234375 C 8.65625 -0.0234375 7.492188 0.078125 5.171875 0.078125 C 2.859375 0.078125 1.703125 -0.0078125 1.703125 -0.1875 L 1.703125 -18.84375 C 1.703125 -19.019531 2.859375 -19.109375 5.171875 -19.109375 C 7.492188 -19.109375 8.65625 -19.035156 8.65625 -18.890625 Z M 8.65625 -21.125 C 8.65625 -20.945312 7.492188 -20.859375 5.171875 -20.859375 C 2.859375 -20.859375 1.703125 -20.9375 1.703125 -21.09375 L 1.703125 -26.5625 C 1.703125 -26.8125 2.859375 -26.9375 5.171875 -26.9375 C 7.492188 -26.9375 8.65625 -26.863281 8.65625 -26.71875 Z M 8.65625 -21.125 "/></g></g></g><g fill="#080e18" fill-opacity="1"><g transform="translate(272.574314, 284.333317)"><g><path d="M 10.453125 -0.234375 C 10.453125 0.078125 9.390625 0.234375 7.265625 0.234375 C 4.722656 0.128906 3.453125 -0.0351562 3.453125 -0.265625 L 3.453125 -13.71875 L 1.515625 -13.71875 C 1.015625 -13.71875 0.765625 -14.59375 0.765625 -16.34375 C 0.765625 -16.800781 0.804688 -17.359375 0.890625 -18.015625 C 0.984375 -18.671875 1.164062 -19 1.4375 -19 L 3.453125 -19 L 3.453125 -22.34375 C 3.453125 -22.851562 4.519531 -23.109375 6.65625 -23.109375 C 8.800781 -23.109375 9.875 -22.90625 9.875 -22.5 L 9.875 -20.0625 L 9.921875 -19 L 13.140625 -19 C 13.578125 -19 13.796875 -18.113281 13.796875 -16.34375 C 13.796875 -14.570312 13.578125 -13.6875 13.140625 -13.6875 L 10.453125 -13.6875 Z M 10.453125 -0.234375 "/></g></g></g><g fill="#080e18" fill-opacity="1"><g transform="translate(286.555457, 284.333317)"><g><path d="M 16.078125 -1.03125 C 14.484375 -0.09375 12.429688 0.375 9.921875 0.375 C 7.410156 0.375 5.289062 -0.476562 3.5625 -2.1875 C 1.84375 -3.894531 0.984375 -6.257812 0.984375 -9.28125 C 0.984375 -12.3125 1.8125 -14.75 3.46875 -16.59375 C 5.132812 -18.445312 7.234375 -19.375 9.765625 -19.375 C 12.296875 -19.375 14.25 -18.726562 15.625 -17.4375 C 17.007812 -16.144531 17.703125 -14.578125 17.703125 -12.734375 C 17.703125 -8.628906 15.347656 -6.578125 10.640625 -6.578125 L 8.015625 -6.578125 C 8.015625 -5.816406 8.222656 -5.289062 8.640625 -5 C 9.054688 -4.707031 9.671875 -4.5625 10.484375 -4.5625 C 12.253906 -4.5625 13.941406 -4.96875 15.546875 -5.78125 C 15.566406 -5.800781 15.679688 -5.625 15.890625 -5.25 C 16.492188 -4.15625 16.796875 -3.234375 16.796875 -2.484375 C 16.796875 -1.742188 16.554688 -1.257812 16.078125 -1.03125 Z M 11.328125 -12.015625 C 11.328125 -13.078125 10.804688 -13.609375 9.765625 -13.609375 C 9.285156 -13.609375 8.875 -13.460938 8.53125 -13.171875 C 8.1875 -12.878906 8.015625 -12.453125 8.015625 -11.890625 L 8.015625 -10.71875 L 10.0625 -10.71875 C 10.90625 -10.71875 11.328125 -11.148438 11.328125 -12.015625 Z M 11.328125 -12.015625 "/></g></g></g><g clip-path="url(#5a07f55f45)"><path fill="#2a3854" d="M 198.214844 247.738281 C 252.597656 242.625 297.382812 205.554688 334.652344 156.019531 C 301.703125 126.136719 269.710938 106.484375 238.523438 97.214844 C 247.960938 103.765625 256.277344 112.078125 262.515625 121.824219 C 279.789062 130.453125 297.382812 142.4375 315.457031 157.777344 C 299.941406 177.109375 284.109375 192.609375 268.113281 204.59375 C 264.113281 207.46875 260.277344 210.1875 256.277344 212.742188 C 232.285156 227.921875 207.492188 234.953125 181.902344 234.15625 C 152.3125 230.480469 128.320312 206.671875 125.441406 175.832031 C 122.402344 143.554688 143.675781 114.632812 174.066406 106.964844 C 155.671875 110.320312 137.597656 118.148438 119.84375 129.972656 C 112.484375 143.554688 108.804688 159.214844 110.40625 175.832031 C 112.164062 194.207031 120.003906 210.507812 131.839844 223.128906 C 147.351562 239.429688 169.425781 249.175781 193.417969 248.058594 C 195.015625 247.898438 196.617188 247.898438 198.214844 247.738281 Z M 198.214844 247.738281 " fill-opacity="1" fill-rule="evenodd"/></g><g clip-path="url(#f86d3ef7ff)"><path fill="#080e18" d="M 176.785156 82.195312 C 122.402344 87.308594 77.617188 124.378906 40.347656 173.914062 C 73.136719 203.796875 105.289062 223.449219 136.476562 232.71875 C 127.039062 226.164062 118.722656 217.855469 112.484375 208.109375 C 95.210938 199.480469 77.617188 187.496094 59.542969 172.15625 C 75.058594 152.824219 90.890625 137.324219 106.886719 125.339844 C 110.886719 122.460938 114.722656 119.746094 118.722656 117.191406 C 142.714844 102.167969 167.507812 94.980469 193.097656 95.777344 C 222.6875 99.453125 246.679688 123.261719 249.558594 154.101562 C 252.597656 186.378906 231.324219 215.300781 200.933594 222.96875 C 219.328125 219.613281 237.402344 211.785156 255.15625 199.960938 C 262.515625 186.378906 266.195312 170.71875 264.59375 154.101562 C 262.835938 135.726562 254.996094 119.425781 243.160156 106.804688 C 227.648438 90.503906 205.574219 80.757812 181.582031 81.875 C 179.984375 82.035156 178.382812 82.035156 176.785156 82.195312 Z M 176.785156 82.195312 " fill-opacity="1" fill-rule="evenodd"/></g><path fill="#364769" d="M 138.238281 170.398438 C 135.675781 143.074219 155.832031 118.789062 183.179688 116.230469 C 210.53125 113.675781 234.84375 133.648438 237.402344 161.132812 C 239.960938 188.457031 219.808594 212.742188 192.457031 215.300781 C 165.109375 217.855469 140.796875 197.722656 138.238281 170.398438 Z M 189.417969 129.015625 C 186.699219 129.332031 184.78125 131.730469 184.941406 134.289062 C 185.261719 137.003906 187.660156 138.921875 190.21875 138.761719 C 202.054688 137.644531 212.613281 146.429688 213.730469 158.253906 C 214.050781 160.972656 216.449219 162.890625 219.007812 162.730469 C 221.730469 162.410156 223.648438 160.011719 223.488281 157.457031 C 221.886719 140.199219 206.535156 127.574219 189.257812 129.175781 Z M 189.417969 129.015625 " fill-opacity="1" fill-rule="evenodd"/></svg>